<?xml version="1.0" encoding="UTF-8"?>
<svg width="250px" height="250px" viewBox="0 0 250 250" version="1.1" xmlns="http://www.w3.org/2000/svg" xmlns:xlink="http://www.w3.org/1999/xlink">
    <!-- Generator: Sketch 42 (36781) - http://www.bohemiancoding.com/sketch -->
    <title>Shape</title>
    <desc>Created with Sketch.</desc>
    <defs></defs>
    <g id="Page-1" stroke="none" stroke-width="1" fill="none" fill-rule="evenodd">
        <g id="clear-night" transform="translate(-131.000000, -131.000000)" fill-rule="nonzero" fill="#6C7C8A">
            <path d="M349.852,343.15 C299.976,393.066 218.769,393.066 168.852,343.15 C118.936,293.233 118.936,212.025 168.852,162.129 C182.061,148.942 198.164,138.879 216.684,132.317 C222.518,130.275 228.977,131.755 233.309,136.109 C237.685,140.484 239.164,146.942 237.102,152.734 C224.56,188.109 233.102,226.4 259.351,252.651 C285.56,278.879 323.852,287.401 359.268,274.901 C365.06,272.839 371.539,274.318 375.893,278.693 C380.269,283.026 381.727,289.505 379.664,295.318 C373.143,313.838 363.06,329.941 349.852,343.15 Z M191.477,184.754 C154.039,222.192 154.039,283.108 191.477,320.525 C231.477,360.546 299.602,356.942 334.477,312.358 C298.518,314.608 263.102,301.629 236.727,275.274 C210.352,248.92 197.394,213.503 199.643,177.545 C196.769,179.796 194.039,182.192 191.477,184.754 Z" id="Shape"></path>
        </g>
    </g>
</svg>