<?xml version="1.0" encoding="UTF-8"?>
<svg width="512px" height="407px" viewBox="0 0 512 407" version="1.1" xmlns="http://www.w3.org/2000/svg" xmlns:xlink="http://www.w3.org/1999/xlink">
    <!-- Generator: Sketch 42 (36781) - http://www.bohemiancoding.com/sketch -->
    <title>Shape</title>
    <desc>Created with Sketch.</desc>
    <defs></defs>
    <g id="Page-1" stroke="none" stroke-width="1" fill="none" fill-rule="evenodd">
        <g id="cloudy" transform="translate(0.000000, -105.000000)" fill-rule="nonzero" fill="#6C7C8A">
            <path d="M512,240.001 C512,190.834 472,150.855 422.833,150.855 C420.437,150.855 418.062,150.959 415.687,151.146 C392.562,122.292 357.708,105.168 319.999,105.168 C282.311,105.168 247.437,122.292 224.311,151.147 C221.936,150.959 219.54,150.856 217.123,150.856 C168,150.855 128,190.834 128,240.001 C128,245.147 128.688,250.105 129.5,255.043 C128.958,255.751 128.312,256.397 127.792,257.126 C122.563,256.376 117.313,256.001 112,256.001 C50.25,256.001 0,306.25 0,368 C0,429.751 50.25,480 112,480 C125.688,480 139.084,477.5 151.709,472.667 C180.666,497.917 217.5,512 256,512 C294.542,512 331.333,497.917 360.291,472.667 C372.916,477.5 386.312,480 400,480 C461.75,480 512,429.751 512,368 C512,342.312 502.958,318.917 488.334,300.001 C502.916,284.105 512,263.168 512,240.001 Z M400,448 C382.875,448 367.084,442.501 354.062,433.334 C330.583,461.625 295.624,480 256,480 C216.375,480 181.416,461.625 157.938,433.334 C144.938,442.501 129.126,448 112,448 C67.812,448 32,412.188 32,368 C32,323.812 67.812,288.001 112,288.001 C122.812,288.001 133.062,290.189 142.438,294.063 C143,293.001 143.688,292.063 144.25,291.042 C149.875,280.771 156.812,271.354 164.916,263 C188,239.084 220.083,224 256,224 C305.709,224 348.334,252.666 369.541,294.062 C375.187,291.75 381.209,290.249 387.416,289.25 L400,288 C412.334,288 423.875,291.042 434.312,296 C445.624,301.416 455.333,309.374 462.958,319.188 C473.458,332.709 480,349.542 480,368 C480,412.188 444.188,448 400,448 Z M465.562,277.625 C447.083,264.167 424.562,256.001 400,256.001 C394.688,256.001 389.438,256.376 384.208,257.126 C354.334,216.418 307.187,192.001 256,192.001 C221.875,192.001 189.688,203.043 163.062,222.335 C170.541,199.481 191.791,182.856 217.124,182.856 C224.874,182.856 232.186,184.418 238.874,187.188 C254.062,157.626 284.499,137.168 319.999,137.168 C355.499,137.168 385.957,157.625 401.083,187.188 C407.812,184.418 415.166,182.856 422.832,182.856 C454.416,182.856 479.999,208.439 479.999,240.002 C480,254.48 474.438,267.542 465.562,277.625 Z" id="Shape"></path>
        </g>
    </g>
</svg>