<?xml version="1.0" encoding="UTF-8"?>
<svg width="416px" height="416px" viewBox="0 0 416 416" version="1.1" xmlns="http://www.w3.org/2000/svg" xmlns:xlink="http://www.w3.org/1999/xlink">
    <!-- Generator: Sketch 42 (36781) - http://www.bohemiancoding.com/sketch -->
    <title>Shape</title>
    <desc>Created with Sketch.</desc>
    <defs></defs>
    <g id="Page-1" stroke="none" stroke-width="1" fill="none" fill-rule="evenodd">
        <g id="fog" transform="translate(-48.000000, -31.000000)" fill-rule="nonzero" fill="#6C7C8A">
            <path d="M256,95 C264.833,95 272,87.833 272,79 L272,47 C272,38.167 264.833,31 256,31 C247.167,31 240,38.167 240,47 L240,79 C240,87.833 247.167,95 256,95 Z M380.438,137.167 L403.063,114.542 C409.312,108.292 409.312,98.167 403.063,91.917 C396.813,85.667 386.688,85.667 380.438,91.917 L357.813,114.542 C351.563,120.792 351.563,130.917 357.813,137.167 C364.063,143.417 374.188,143.417 380.438,137.167 Z M64,255 L96,255 C104.833,255 112,247.833 112,239 C112,230.167 104.833,223 96,223 L64,223 C55.167,223 48,230.167 48,239 C48,247.833 55.167,255 64,255 Z M400,239 C400,247.833 407.167,255 416,255 L448,255 C456.833,255 464,247.833 464,239 C464,230.167 456.833,223 448,223 L416,223 C407.167,223 400,230.167 400,239 Z M131.541,137.167 C137.792,143.417 147.917,143.417 154.166,137.167 C160.417,130.917 160.417,120.792 154.166,114.542 L131.541,91.917 C125.291,85.667 115.167,85.667 108.916,91.917 C102.666,98.167 102.666,108.292 108.916,114.542 L131.541,137.167 Z M145.625,255 L177.625,255 C176.563,249.833 176,244.479 176,239 C176,194.812 211.812,159 256,159 C300.188,159 336,194.812 336,239 C336,244.479 335.438,249.833 334.375,255 L366.375,255 C367.167,249.729 368,244.479 368,239 C368,177.25 317.75,127 256,127 C194.25,127 144,177.25 144,239 C144,244.479 144.875,249.729 145.625,255 Z M448,287 L64,287 C55.167,287 48,294.167 48,303 C48,311.833 55.167,319 64,319 L448,319 C456.833,319 464,311.833 464,303 C464,294.167 456.833,287 448,287 Z M448,351 L64,351 C55.167,351 48,358.167 48,367 C48,375.833 55.167,383 64,383 L448,383 C456.833,383 464,375.833 464,367 C464,358.167 456.833,351 448,351 Z M448,415 L64,415 C55.167,415 48,422.167 48,431 C48,439.833 55.167,447 64,447 L448,447 C456.833,447 464,439.833 464,431 C464,422.167 456.833,415 448,415 Z" id="Shape"></path>
        </g>
    </g>
</svg>