<?xml version="1.0" encoding="UTF-8"?>
<svg width="512px" height="474px" viewBox="0 0 512 474" version="1.1" xmlns="http://www.w3.org/2000/svg" xmlns:xlink="http://www.w3.org/1999/xlink">
    <!-- Generator: Sketch 42 (36781) - http://www.bohemiancoding.com/sketch -->
    <title>Shape</title>
    <desc>Created with Sketch.</desc>
    <defs></defs>
    <g id="Page-1" stroke="none" stroke-width="1" fill="none" fill-rule="evenodd">
        <g id="partly-cloudy-night" transform="translate(-1.000000, -38.000000)" fill-rule="nonzero" fill="#6C7C8A">
            <path d="M436.062,262.166 C440.937,258.541 445.874,254.978 450.291,250.562 C463.499,237.333 473.562,221.229 480.083,202.708 C482.166,196.916 480.687,190.416 476.311,186.083 C471.957,181.708 465.499,180.229 459.688,182.291 C424.292,194.791 386,186.291 359.792,160.041 C333.542,133.79 325,95.52 337.542,60.145 C339.584,54.332 338.125,47.874 333.75,43.499 C329.417,39.166 322.938,37.665 317.125,39.708 C298.583,46.29 282.5,56.331 269.291,69.54 C235.75,103.04 225.312,150.54 236.812,193.332 C193.562,198.853 154.687,221.832 128.791,257.125 C123.562,256.375 118.312,256 112.999,256 C51.249,256 0.999,306.25 0.999,368.001 C0.999,429.75 51.249,480 112.999,480 C126.687,480 140.083,477.5 152.708,472.666 C181.665,497.916 218.499,512 256.999,512 C295.541,512 332.332,497.916 361.29,472.666 C373.915,477.5 387.311,480 400.999,480 C462.749,480 512.999,429.75 512.999,368.001 C513,318.562 480.583,276.979 436.062,262.166 Z M291.916,92.166 C294.458,89.583 297.187,87.187 300.062,84.937 C297.812,120.916 310.791,156.312 337.166,182.666 C363.542,209.041 398.937,221.999 434.917,219.77 C421.125,237.354 402.125,248.291 381.791,252.958 C354.416,218.208 314.187,196.333 269.833,192.771 C257.562,158.812 264.75,119.333 291.916,92.166 Z M401,448 C383.875,448 368.084,442.5 355.062,433.333 C331.583,461.625 296.624,480 257,480 C217.375,480 182.416,461.625 158.938,433.333 C145.938,442.5 130.126,448 113,448 C68.812,448 33,412.188 33,368.001 C33,323.813 68.812,288.001 113,288.001 C123.812,288.001 134.062,290.189 143.438,294.063 C163.626,254.708 203.188,227.167 249.75,224.52 C252.188,224.375 254.562,223.999 257,223.999 C269.916,223.999 282.312,226.02 294,229.582 C309.791,234.416 324.188,242.29 336.688,252.436 C348.626,262.124 358.626,273.998 366.5,287.332 C367.833,289.582 369.334,291.707 370.541,294.061 C379.937,290.186 390.209,287.999 401,287.999 C445.188,287.999 481,323.811 481,367.999 C481,412.187 445.188,448 401,448 Z" id="Shape"></path>
        </g>
    </g>
</svg>