<?xml version="1.0" encoding="UTF-8"?>
<svg width="512px" height="448px" viewBox="0 0 512 448" version="1.1" xmlns="http://www.w3.org/2000/svg" xmlns:xlink="http://www.w3.org/1999/xlink">
    <!-- Generator: Sketch 42 (36781) - http://www.bohemiancoding.com/sketch -->
    <title>Shape</title>
    <desc>Created with Sketch.</desc>
    <defs></defs>
    <g id="Page-1" stroke="none" stroke-width="1" fill="none" fill-rule="evenodd">
        <g id="sleet" transform="translate(0.000000, -32.000000)" fill="#6C7C8A">
            <path d="M417.042,70.792 C393.062,46.229 359.917,32 325.312,32 C290.75,32 257.624,46.229 233.647,70.792 C180.834,73.23 138.626,116.959 138.626,170.334 C138.626,225.312 183.335,270.042 238.314,270.042 C244.148,270.042 249.918,269.541 255.585,268.542 C276.314,282.063 300.502,289.375 325.314,289.375 C350.168,289.375 374.377,282.063 395.086,268.542 C400.793,269.541 406.544,270.042 412.377,270.042 C467.315,270.042 512.002,225.312 512.002,170.334 C512,116.958 469.812,73.208 417.042,70.792 Z M412.375,238.042 C404.063,238.042 396,236.542 388.375,233.584 C370.875,248.834 348.625,257.376 325.312,257.376 C302.063,257.376 279.813,248.834 262.313,233.584 C254.688,236.543 246.563,238.042 238.313,238.042 C201.001,238.042 170.625,207.667 170.625,170.334 C170.625,133.042 201,102.667 238.313,102.667 C241.501,102.667 244.688,102.917 247.834,103.355 C265.938,78.771 294.375,64 325.312,64 C356.25,64 384.75,78.771 402.813,103.354 C405.938,102.916 409.125,102.666 412.375,102.666 C449.687,102.666 480,133.041 480,170.333 C480,207.667 449.688,238.042 412.375,238.042 Z M144,256.688 L16,256.688 C7.167,256.688 0,263.834 0,272.688 C0,281.541 7.167,288.688 16,288.688 L144,288.688 C152.833,288.688 160,281.541 160,272.688 C160,263.834 152.833,256.688 144,256.688 Z M16,224.688 L80,224.688 C88.833,224.688 96,217.542 96,208.688 C96,199.834 88.833,192.688 80,192.688 L16,192.688 C7.167,192.688 0,199.834 0,208.688 C0,217.542 7.167,224.688 16,224.688 Z M48,160.688 L112,160.688 C120.833,160.688 128,153.542 128,144.688 C128,135.834 120.833,128.688 112,128.688 L48,128.688 C39.167,128.688 32,135.834 32,144.688 C32,153.542 39.167,160.688 48,160.688 Z M224,384 C224,401.688 238.312,416 256,416 C273.688,416 288,401.688 288,384 C288,366.312 256,320 256,320 C256,320 224,366.312 224,384 Z M352,448 C352,465.688 366.312,480 384,480 C401.688,480 416,465.688 416,448 C416,430.312 384,384 384,384 C384,384 352,430.312 352,448 Z" id="Shape"></path>
        </g>
    </g>
</svg>