<?xml version="1.0" encoding="UTF-8"?>
<svg width="416px" height="288px" viewBox="0 0 416 288" version="1.1" xmlns="http://www.w3.org/2000/svg" xmlns:xlink="http://www.w3.org/1999/xlink">
    <!-- Generator: Sketch 42 (36781) - http://www.bohemiancoding.com/sketch -->
    <title>Shape</title>
    <desc>Created with Sketch.</desc>
    <defs></defs>
    <g id="Page-1" stroke="none" stroke-width="1" fill="none" fill-rule="evenodd">
        <g id="wind" transform="translate(-63.000000, -128.000000)" fill-rule="nonzero" fill="#6C7C8A">
            <path d="M431,192 C404.5,192 383,213.5 383,240 C383,245.646 384.167,250.958 385.938,256 L79,256 C70.167,256 63,263.167 63,272 C63,280.833 70.167,288 79,288 L431,288 C457.5,288 479,266.5 479,240 C479,213.5 457.5,192 431,192 Z M79,224 L271,224 C297.5,224 319,202.5 319,176 C319,149.5 297.5,128 271,128 C244.5,128 223,149.5 223,176 C223,181.646 224.167,186.958 225.938,192 L79,192 C70.167,192 63,199.167 63,208 C63,216.833 70.167,224 79,224 Z M335,320 C334.062,320 333.166,320.208 332.209,320.291 C331.584,320.25 331.063,320 330.438,320 L83.584,320 C72.209,320 63,327.167 63,336 C63,344.833 72.209,352 83.584,352 L289.938,352 C288.167,357.042 287,362.376 287,368 C287,394.5 308.5,416 335,416 C361.5,416 383,394.5 383,368 C383,341.5 361.5,320 335,320 Z" id="Shape"></path>
        </g>
    </g>
</svg>