<svg xmlns="http://www.w3.org/2000/svg" width="40" height="40" viewBox="0 0 40 40"><style type="text/css">.st0{fill:#6c8fe0;stroke:#6c8fe0;stroke-miterlimit:10;}</style><path class="st0" d="M20 32c-6.8 0-12.3-5.4-12.3-12s5.5-12 12.3-12c6.7 0 12.2 5.4 12.2 12 .1 6.6-5.5 12-12.2 12zm-5.8-17.7c-1.1-.4-2.1-.8-3-1.4-1.6 1.9-2.5 4.2-2.7 6.7h4.6c.2-2 .5-3.8 1.1-5.3zm0 11.4c-.6-1.6-.9-3.3-.9-5.3h-4.7c.1 2.5 1.1 4.8 2.6 6.7.9-.6 1.9-1 3-1.4zm4-16.7c-2.5.4-4.7 1.6-6.4 3.2.8.5 1.7.9 2.7 1.3.9-1.9 2.1-3.4 3.7-4.5zm-3.7 17.4c-1 .3-1.9.8-2.7 1.3 1.7 1.7 3.9 2.9 6.4 3.3-1.6-1.1-2.8-2.6-3.7-4.6zm5.1-11.2c-1.6 0-3.2-.3-4.6-.6-.6 1.5-.9 3.2-.9 5h5.5v-4.4zm0 9.6v-4.3h-5.5c0 1.9.4 3.5.9 5 1.4-.5 2.9-.7 4.6-.7zm0 .8c-1.5 0-3 .3-4.3.6.9 2.1 2.4 3.7 4.3 4.7v-5.3zm0-16.5c-1.8 1-3.3 2.6-4.3 4.7 1.3.4 2.7.5 4.3.6v-5.3zm5.1 4.7c-.9-2.1-2.4-3.7-4.3-4.7v5.3c1.6-.1 3-.3 4.3-.6zm.4.7c-1.4.4-3 .6-4.6.7v4.4h5.5c0-1.9-.4-3.6-.9-5.1zm.9 5.9h-5.5v4.3c1.6 0 3.2.3 4.6.7.5-1.4.9-3.1.9-5zm-1.2 5.8c-1.3-.3-2.7-.5-4.3-.6v5.3c1.8-1 3.3-2.6 4.3-4.7zm3.4 1.5c-.8-.5-1.7-.9-2.7-1.3-.9 1.9-2.1 3.5-3.7 4.5 2.6-.3 4.8-1.5 6.4-3.2zm0-15.5c-1.7-1.7-3.9-2.9-6.3-3.2 1.5 1.1 2.8 2.6 3.7 4.5.9-.3 1.8-.7 2.6-1.3zm.6.7c-.9.5-1.8 1-2.9 1.4.6 1.6.9 3.4 1 5.3h4.6c-.2-2.5-1.1-4.9-2.7-6.7zm2.6 7.5h-4.6c0 1.9-.4 3.7-1 5.3 1.1.4 2.1.8 3 1.4 1.6-1.8 2.5-4.2 2.6-6.7z"/></svg>