<svg xmlns="http://www.w3.org/2000/svg" width="256" height="40" viewBox="0 0 256 40"><style type="text/css">.st0{fill:#6c8fe0;stroke:#6c8fe0;stroke-miterlimit:10;} path{fill:#6c8fe0;}</style><path class="st0" d="M15.3 31c-6.8 0-12.3-5.5-12.3-12.1s5.5-12 12.3-12c6.7 0 12.2 5.4 12.2 12 .1 6.6-5.5 12.1-12.2 12.1zm-5.8-17.7c-1.1-.4-2.1-.8-3-1.4-1.6 1.8-2.5 4.1-2.6 6.6h4.6c0-2 .4-3.7 1-5.2zm-.1 11.3c-.6-1.6-.9-3.3-.9-5.3h-4.6c.1 2.6 1 4.9 2.6 6.7.9-.5 1.9-1 2.9-1.4zm4.1-16.6c-2.5.3-4.7 1.5-6.4 3.2.8.5 1.7.9 2.7 1.3.9-1.9 2.1-3.5 3.7-4.5zm-3.7 17.4c-1 .3-1.9.8-2.7 1.3 1.7 1.7 3.9 2.9 6.4 3.3-1.6-1.1-2.8-2.7-3.7-4.6zm5.1-11.3c-1.6 0-3.2-.3-4.6-.6-.6 1.5-.9 3.2-.9 5h5.5v-4.4zm0 9.6v-4.3h-5.5c0 1.9.4 3.5.9 5 1.4-.4 2.9-.6 4.6-.7zm0 .9c-1.5 0-3 .3-4.3.6.9 2.1 2.4 3.7 4.3 4.7v-5.3zm0-16.6c-1.8 1-3.3 2.6-4.3 4.7 1.3.4 2.7.5 4.3.6v-5.3zm5.1 4.7c-.9-2.1-2.4-3.7-4.2-4.7v5.3c1.5 0 2.9-.2 4.2-.6zm.4.8c-1.4.4-3 .6-4.6.7v4.4h5.5c0-1.9-.4-3.7-.9-5.1zm.9 5.9h-5.5v4.3c1.6 0 3.2.3 4.6.7.5-1.5.9-3.2.9-5zm-1.2 5.7c-1.3-.3-2.7-.5-4.3-.6v5.3c1.8-.9 3.3-2.6 4.3-4.7zm3.4 1.6c-.8-.5-1.7-.9-2.7-1.3-.9 1.9-2.1 3.5-3.7 4.5 2.6-.3 4.8-1.5 6.4-3.2zm0-15.5c-1.7-1.7-3.9-2.9-6.3-3.2 1.5 1.1 2.8 2.6 3.7 4.5.9-.4 1.8-.8 2.6-1.3zm.6.6c-.9.5-1.8 1-2.9 1.4.6 1.6.9 3.4 1 5.3h4.6c-.2-2.5-1.2-4.8-2.7-6.7zm2.6 7.6h-4.6c0 1.9-.4 3.7-1 5.3 1.1.4 2.1.8 3 1.4 1.5-1.9 2.5-4.2 2.6-6.7z"/><path d="M45 27c1.5 0 2.7-.3 3.4-.8s1-1.2 1-2.2c0-.6-.1-1-.4-1.4-.2-.4-.6-.8-1-1.1-.4-.3-1-.6-1.6-.9-.6-.3-1.4-.5-2.2-.8l-2.4-.9c-.8-.3-1.4-.8-2-1.3-.6-.5-1-1.1-1.4-1.8-.4-.7-.5-1.6-.5-2.6 0-2.1.7-3.7 2.2-4.9 1.5-1.2 3.5-1.8 6-1.8 1.5 0 2.8.2 3.9.5s2 .7 2.7 1l-1.3 3.4c-.8-.4-1.6-.7-2.5-1-.9-.2-1.9-.3-2.8-.3-1.2 0-2 .2-2.7.7s-1 1.1-1 2c0 .5.1.9.3 1.3.2.4.5.7.9 1 .4.3.9.6 1.4.8.5.2 1.1.5 1.7.7 1.1.4 2.1.8 3 1.2.9.4 1.6.9 2.2 1.5s1.1 1.2 1.4 2c.3.8.5 1.7.5 2.8 0 2.1-.8 3.7-2.3 4.8-1.5 1.1-3.7 1.7-6.6 1.7-1 0-1.9-.1-2.7-.2-.8-.1-1.5-.3-2.1-.4s-1.2-.4-1.6-.5l-1.1-.5 1.3-3.4c.6.3 1.4.7 2.5 1 1.1.3 2.4.4 3.8.4zM73.4 21.5c0 1.3-.2 2.5-.5 3.7-.4 1.1-.9 2.1-1.5 2.9-.7.8-1.5 1.4-2.5 1.9-1 .4-2.1.7-3.3.7-.8 0-1.6-.1-2.3-.3-.7-.2-1.3-.4-1.7-.7v6.7h-4.1v-23.1c.8-.2 1.9-.4 3.1-.6s2.5-.3 3.9-.3 2.7.2 3.8.6c1.1.4 2 1 2.8 1.8.8.8 1.4 1.7 1.8 2.9.3 1.1.5 2.4.5 3.8zm-4.2 0c0-1.8-.4-3.2-1.2-4.2-.8-1-2.2-1.5-4-1.5h-1.2c-.4 0-.8.1-1.2.2v9.9c.4.2.8.5 1.4.7.6.2 1.2.3 1.9.3 1.5 0 2.6-.5 3.3-1.5.7-.8 1-2.2 1-3.9zM83.3 12.4c1.4 0 2.5.2 3.4.5.9.3 1.7.8 2.2 1.4.6.6.9 1.3 1.2 2.2.2.9.4 1.8.4 2.8v10.5c-.6.1-1.6.3-2.9.5-1.3.2-2.7.3-4.3.3-1.1 0-2-.1-2.9-.3-.9-.2-1.6-.5-2.3-1-.6-.4-1.1-1-1.5-1.7s-.5-1.6-.5-2.6.2-1.8.6-2.5c.4-.7.9-1.2 1.6-1.7s1.5-.7 2.4-.9c.9-.2 1.8-.3 2.8-.3.5 0 .9 0 1.4.1.5.1 1 .1 1.6.3v-.7c0-.5-.1-.9-.2-1.3s-.3-.8-.6-1.1c-.3-.3-.7-.6-1.1-.7-.5-.2-1-.3-1.7-.3-.9 0-1.8.1-2.6.2s-1.4.3-1.9.5l-.5-3.3c.5-.2 1.3-.4 2.3-.5.9-.4 2-.4 3.1-.4zm.4 14.9c1.3 0 2.2-.1 2.9-.2v-4.4c-.2-.1-.6-.1-1-.2s-.9-.1-1.4-.1c-.5 0-.9 0-1.4.1-.5.1-.9.2-1.3.4s-.7.4-.9.7c-.2.3-.3.7-.3 1.2 0 1 .3 1.6.9 2 .6.3 1.4.5 2.5.5zM94.2 21.5c0-1.3.2-2.5.6-3.6.4-1.1 1-2.1 1.7-2.9.8-.8 1.7-1.5 2.8-1.9 1.1-.5 2.3-.7 3.7-.7 1.7 0 3.3.3 4.7.9l-.9 3.3c-.5-.2-1-.4-1.6-.5s-1.2-.2-1.9-.2c-1.6 0-2.8.5-3.7 1.5-.8 1-1.3 2.4-1.3 4.2 0 1.7.4 3.1 1.2 4.1.8 1 2.1 1.5 4 1.5.7 0 1.4-.1 2.1-.2s1.3-.3 1.8-.5l.6 3.3c-.5.2-1.1.4-2 .6-.9.2-1.9.3-2.8.3-1.5 0-2.8-.2-3.9-.7-1.1-.5-2-1.1-2.8-1.9-.7-.8-1.3-1.8-1.6-2.9-.5-1.2-.7-2.4-.7-3.7zM109.9 21.5c0-1.5.2-2.9.7-4 .5-1.2 1.1-2.1 1.8-2.9.8-.8 1.6-1.3 2.6-1.7 1-.4 2-.6 3-.6 2.4 0 4.3.7 5.7 2.2 1.4 1.5 2 3.7 2 6.6v.7c0 .3 0 .5-.1.7h-11.7c.1 1.4.6 2.5 1.5 3.2.9.8 2.2 1.1 3.9 1.1 1 0 1.9-.1 2.7-.3.8-.2 1.5-.4 1.9-.6l.5 3.3c-.2.1-.5.2-.9.3-.4.1-.8.2-1.4.3-.5.1-1.1.2-1.6.2-.6.1-1.2.1-1.8.1-1.6 0-2.9-.2-4.1-.7s-2.1-1.1-2.8-1.9c-.7-.8-1.3-1.8-1.7-2.9 0-.5-.2-1.7-.2-3.1zm11.9-1.7c0-.6-.1-1.1-.2-1.6-.2-.5-.4-.9-.7-1.3-.3-.4-.7-.7-1.1-.9-.4-.2-1-.3-1.6-.3-.6 0-1.2.1-1.7.3s-.9.5-1.2.9c-.3.4-.6.8-.8 1.3-.2.5-.3 1-.4 1.5h7.7zM148.7 30.6c-1.8 0-3.3-.3-4.7-.8-1.4-.5-2.6-1.3-3.6-2.3-1-1-1.7-2.3-2.2-3.8-.5-1.5-.8-3.2-.8-5.1 0-1.9.3-3.6.9-5.1.6-1.5 1.4-2.7 2.5-3.8 1-1 2.3-1.8 3.7-2.3 1.4-.5 2.9-.8 4.5-.8 1 0 1.9.1 2.6.2.8.1 1.5.3 2.1.5s1.1.4 1.5.6.7.3.8.4l-1.3 3.4c-.5-.3-1.3-.6-2.3-.9s-2.1-.4-3.3-.4c-1 0-2 .2-2.8.5-.9.3-1.6.9-2.3 1.5-.6.7-1.1 1.5-1.5 2.6-.4 1-.5 2.2-.5 3.6 0 1.2.1 2.3.4 3.4.3 1 .7 1.9 1.3 2.6.6.7 1.3 1.3 2.2 1.7s2 .6 3.3.6c1.5 0 2.7-.1 3.7-.4s1.7-.6 2.2-.8l1.2 3.4c-.3.2-.6.4-1.1.5-.5.2-1 .3-1.6.5-.6.2-1.3.3-2.1.4-1 .1-1.9.1-2.8.1zM175.1 21.5c0 1.4-.2 2.6-.6 3.8-.4 1.1-1 2.1-1.7 2.9-.7.8-1.6 1.4-2.7 1.9s-2.2.7-3.5.7c-1.3 0-2.4-.2-3.5-.7-1-.4-1.9-1.1-2.7-1.9-.7-.8-1.3-1.8-1.7-2.9s-.6-2.4-.6-3.8.2-2.6.6-3.7c.4-1.1 1-2.1 1.8-2.9s1.7-1.4 2.7-1.8c1-.4 2.2-.6 3.4-.6 1.2 0 2.4.2 3.4.6 1 .4 1.9 1 2.7 1.8s1.3 1.8 1.7 2.9c.5 1 .7 2.3.7 3.7zm-4.2 0c0-1.7-.4-3.1-1.1-4.1-.8-1-1.8-1.5-3.2-1.5s-2.4.5-3.2 1.5-1.1 2.4-1.1 4.1c0 1.7.4 3.1 1.1 4.1.8 1 1.8 1.5 3.2 1.5s2.4-.5 3.2-1.5c.7-1 1.1-2.4 1.1-4.1zM179 13.3c.8-.2 1.8-.4 3.1-.6 1.3-.2 2.7-.3 4.2-.3 1.4 0 2.7.2 3.6.6 1 .4 1.7.9 2.3 1.6.6.7 1 1.5 1.2 2.5.2 1 .4 2.1.4 3.2v9.8h-4.1v-9.1c0-.9-.1-1.7-.2-2.4s-.3-1.2-.6-1.6-.7-.7-1.2-.9c-.5-.2-1.1-.3-1.8-.3-.5 0-1.1 0-1.6.1s-1 .1-1.3.2v14h-4v-16.8zM198.2 8.2l4.1-.7v5.2h6.3v3.4h-6.3v7.1c0 1.4.2 2.4.7 3 .5.6 1.2.9 2.3.9.7 0 1.4-.1 2-.2.6-.2 1-.3 1.4-.4l.7 3.2c-.5.2-1.1.4-1.9.6s-1.7.3-2.7.3c-1.3 0-2.3-.2-3.2-.5s-1.5-.8-2-1.4c-.5-.6-.8-1.4-1-2.3s-.3-1.9-.3-3.1v-15.1zM222.4 16.4c-.3-.1-.8-.2-1.4-.3-.6-.1-1.3-.2-2.1-.2-.5 0-.9 0-1.4.1-.5.1-.9.2-1.1.2v13.9h-4.1v-16.5c.8-.3 1.8-.6 3-.8 1.2-.3 2.5-.4 3.9-.4h.9s.7.1 1.1.1c.4.1.7.1 1 .2.3.1.6.1.8.2l-.6 3.5zM241.6 21.5c0 1.4-.2 2.6-.6 3.8-.4 1.1-1 2.1-1.7 2.9-.7.8-1.6 1.4-2.7 1.9s-2.2.7-3.5.7c-1.3 0-2.4-.2-3.5-.7-1-.4-1.9-1.1-2.7-1.9-.7-.8-1.3-1.8-1.7-2.9s-.6-2.4-.6-3.8.2-2.6.6-3.7c.4-1.1 1-2.1 1.8-2.9s1.7-1.4 2.7-1.8c1-.4 2.2-.6 3.4-.6 1.2 0 2.4.2 3.4.6 1 .4 1.9 1 2.7 1.8s1.3 1.8 1.7 2.9c.5 1 .7 2.3.7 3.7zm-4.2 0c0-1.7-.4-3.1-1.1-4.1-.8-1-1.8-1.5-3.2-1.5s-2.4.5-3.2 1.5-1.1 2.4-1.1 4.1c0 1.7.4 3.1 1.1 4.1.8 1 1.8 1.5 3.2 1.5s2.4-.5 3.2-1.5c.8-1 1.1-2.4 1.1-4.1zM251.7 30.5c-1.2 0-2.2-.2-3-.4-.8-.2-1.4-.6-1.9-1-.5-.5-.8-1-1-1.7-.2-.7-.3-1.4-.3-2.3v-20l4.1-.7v19.9c0 .5 0 .9.1 1.2s.2.6.4.8.5.4.8.5.8.2 1.3.3l-.5 3.4z"/></svg>