<svg xmlns="http://www.w3.org/2000/svg" viewBox="0 0 475 474"><defs><style>.cls-1{fill:#036f73;}</style></defs><title>clock-number</title><g id="Objects"><path class="cls-1" d="M379.59,204.59,375.05,206a5.59,5.59,0,0,1-1.38.19,3.35,3.35,0,0,1-.82-6.61l6.67-2.14a13.44,13.44,0,0,1,3.77-.69h.13a3.78,3.78,0,0,1,3.84,3.84v37.25a3.84,3.84,0,1,1-7.68,0Z" transform="translate(-162 -163)"/><path class="cls-1" d="M398,233.85l13.52-11.52c6-5.09,8.24-7.93,8.24-11.89,0-4.34-3.08-6.86-7.11-6.86-3.53,0-6,1.64-8.69,4.91a3.56,3.56,0,0,1-6.23-2.33,3.88,3.88,0,0,1,.88-2.39c3.59-4.47,7.68-7.11,14.6-7.11,8.62,0,14.54,5.28,14.54,13.15v.12c0,6.92-3.65,10.7-11.45,17.05l-9.06,7.55h17.87a3.4,3.4,0,0,1,0,6.8h-25c-2.39,0-4.15-1.39-4.15-3.65A4.8,4.8,0,0,1,398,233.85Z" transform="translate(-162 -163)"/><path class="cls-1" d="M571.25,417.27a3.72,3.72,0,1,1,5-5.48,13.39,13.39,0,0,0,10,4.22c4.34,0,7.61-2.64,7.61-6.67v-.12c0-4.34-4-6.8-10.13-6.8H582.2a3.36,3.36,0,0,1-3.33-3.33,4.39,4.39,0,0,1,1.63-3.15l10.32-11h-16a3.37,3.37,0,1,1,0-6.73h22.52c2.2,0,3.84,1.32,3.84,3.4,0,1.83-.88,2.89-2.2,4.22l-10.38,10.76c6.67.82,13,4.22,13,12.33V409c0,8.12-6.23,14-15.42,14A20.65,20.65,0,0,1,571.25,417.27Z" transform="translate(-162 -163)"/><path class="cls-1" d="M387.76,599.53c-3.33-3.34-5.35-7.93-5.35-16.8v-.12c0-13.46,6.42-24,18.87-24a19.15,19.15,0,0,1,11,3.14,3.71,3.71,0,0,1,1.95,3.34,3.65,3.65,0,0,1-3.71,3.59,4.13,4.13,0,0,1-2-.57,12.88,12.88,0,0,0-7.55-2.45c-6.55,0-10.19,5.91-10.57,14a14.06,14.06,0,0,1,10.57-4.4c8.49,0,15.35,5,15.35,13.84v.12c0,8.75-7.11,15-16.36,15C394.62,604.19,390.72,602.49,387.76,599.53Zm20.89-10v-.12c0-4.4-3.53-7.68-9-7.68s-8.93,3.52-8.93,7.74v.13c0,4.47,3.65,7.86,9.12,7.86S408.66,594.06,408.66,589.53Z" transform="translate(-162 -163)"/><path class="cls-1" d="M197.4,419.72a3.67,3.67,0,0,1-1.76-3.21,3.55,3.55,0,0,1,3.65-3.52,4,4,0,0,1,2.14.63,13.24,13.24,0,0,0,8.06,2.7c6.48,0,10.38-5.72,10.63-13.84a13,13,0,0,1-10.32,4.65c-9.38,0-15.6-5.47-15.6-14V393c0-8.62,6.67-15.23,16.42-15.23,5.54,0,9.12,1.57,12.27,4.66,3.21,3.27,5.28,8.12,5.28,16.8v.13c0,14.16-7,24-18.88,24A20.25,20.25,0,0,1,197.4,419.72Zm22.46-27v-.13c0-4.59-3.59-8.12-9.19-8.12s-8.75,3.65-8.75,8.18v.13c0,4.59,3.53,7.87,9,7.87S219.86,397,219.86,392.73Z" transform="translate(-162 -163)"/><path class="cls-1" d="M3.47,234h12A3.48,3.48,0,0,1,19,237.48v1A3.47,3.47,0,0,1,15.53,242h-12A3.48,3.48,0,0,1,0,238.52v-1A3.47,3.47,0,0,1,3.47,234Z"/><path class="cls-1" d="M405,179c0,1.92-1.38,3-3.3,3H400a2.71,2.71,0,0,1-3-3V167c0-1.92,1.1-4,3-4h1.68c1.92,0,3.3,2.09,3.3,4Z" transform="translate(-162 -163)"/><rect class="cls-1" x="456" y="234" width="19" height="8" rx="3.47" ry="3.47"/><rect class="cls-1" x="235" y="455" width="8" height="19" rx="3.48" ry="3.48"/><path class="cls-1" d="M281,598.82a3.12,3.12,0,0,0,.89,4.33h0a3.13,3.13,0,0,0,4.33-.89l5.16-7.84a3.12,3.12,0,0,0-.89-4.33h0a3.13,3.13,0,0,0-4.33.89Z" transform="translate(-162 -163)"/><path class="cls-1" d="M198.19,512.76A3.13,3.13,0,0,0,197,517h0a3.13,3.13,0,0,0,4.25,1.21l8.2-4.57a3.13,3.13,0,0,0,1.21-4.25h0a3.13,3.13,0,0,0-4.25-1.21Z" transform="translate(-162 -163)"/><path class="cls-1" d="M201.16,280.73a3.13,3.13,0,0,0-4.33.89h0a3.12,3.12,0,0,0,.89,4.33l7.83,5.16a3.13,3.13,0,0,0,4.33-.89h0a3.13,3.13,0,0,0-.89-4.33Z" transform="translate(-162 -163)"/><path class="cls-1" d="M287.21,197.94a3.12,3.12,0,0,0-4.25-1.21h0a3.13,3.13,0,0,0-1.21,4.26l4.57,8.2a3.12,3.12,0,0,0,4.25,1.21h0a3.13,3.13,0,0,0,1.21-4.25Z" transform="translate(-162 -163)"/><path class="cls-1" d="M519,202.11a3.12,3.12,0,0,0-.89-4.33h0a3.12,3.12,0,0,0-4.33.89l-5.16,7.84a3.13,3.13,0,0,0,.89,4.33h0a3.13,3.13,0,0,0,4.33-.89Z" transform="translate(-162 -163)"/><path class="cls-1" d="M601.8,288.16a3.12,3.12,0,0,0,1.21-4.25h0a3.13,3.13,0,0,0-4.25-1.21l-8.2,4.57a3.12,3.12,0,0,0-1.21,4.25h0a3.12,3.12,0,0,0,4.25,1.21Z" transform="translate(-162 -163)"/><path class="cls-1" d="M598.84,519.15a3.12,3.12,0,0,0,4.33-.89h0a3.12,3.12,0,0,0-.89-4.33l-7.83-5.16a3.13,3.13,0,0,0-4.33.89h0A3.13,3.13,0,0,0,591,514Z" transform="translate(-162 -163)"/><path class="cls-1" d="M512.79,601.94a3.13,3.13,0,0,0,4.25,1.21h0a3.13,3.13,0,0,0,1.21-4.26l-4.57-8.2a3.13,3.13,0,0,0-4.25-1.21h0a3.13,3.13,0,0,0-1.21,4.25Z" transform="translate(-162 -163)"/></g></svg>