<svg width="512" height="512" xmlns="http://www.w3.org/2000/svg">

 <g>
  <title>background</title>
  <rect fill="none" id="canvas_background" height="402" width="582" y="-1" x="-1"/>
 </g>
 <g>
  <title>Layer 1</title>
  <path fill="#fcfcfc" id="svg_1" d="m497.913,497.913c-18.782,18.782 -49.225,18.782 -68.008,0l-84.862,-84.863c-34.889,22.382 -76.13,35.717 -120.659,35.717c-123.915,0 -224.384,-100.455 -224.384,-224.384s100.469,-224.383 224.384,-224.383c123.931,0 224.384,100.452 224.384,224.383c0,44.514 -13.352,85.771 -35.718,120.676l84.863,84.863c18.782,18.782 18.782,49.209 0,67.991zm-273.529,-433.804c-88.511,0 -160.274,71.747 -160.274,160.273c0,88.526 71.764,160.274 160.274,160.274c88.525,0 160.273,-71.748 160.273,-160.274c0,-88.526 -71.748,-160.273 -160.273,-160.273z"/>
 </g>
</svg>