<svg id="Layer_1" data-name="Layer 1" xmlns="http://www.w3.org/2000/svg" viewBox="0 0 280.9 323.6"><defs><style>.cls-1{fill:#f2e0d1;}.cls-2{fill:#e5d0c1;}.cls-3{fill:none;stroke:#231f20;stroke-linecap:round;stroke-linejoin:round;stroke-width:2px;}.cls-4{fill:#ff6363;}.cls-5{fill:#231f20;}.cls-6{fill:#dfd276;}</style></defs><title>proto_1</title><path class="cls-1" d="M421,315.6c-43.9-7.9-80.9-14.6-80.2-44-12,3.1-34.5,1.3-41.6-.2C300,301,263,307.7,219,315.6c-49.4,8.9-38.4,45.2-38.4,45.2H459.4S470.3,324.5,421,315.6Z" transform="translate(-179.5 -37.2)"/><path class="cls-2" d="M245.7,178s-17.7-.9-13.6,15S247,219.4,255,214.8Z" transform="translate(-179.5 -37.2)"/><path class="cls-2" d="M395,178s17.7-.9,13.6,15-14.9,26.4-22.9,21.8Z" transform="translate(-179.5 -37.2)"/><path class="cls-2" d="M340.8,271.6c0-1.8.2-6.7.4-8.7-5.5,1.2-15.9,1.8-21.2,1.8s-15.8-.6-21.2-1.8c.2,1.9.4,6.8.4,8.5C306.3,273,328.8,274.7,340.8,271.6Z" transform="translate(-179.5 -37.2)"/><path class="cls-1" d="M320,73.1s-84,.1-78.8,71.6c4.1,57.5,20.5,103.4,58.5,119.9a31.3,31.3,0,0,0,5.4,1.5,64.3,64.3,0,0,0,29.8,0l4.3-1.2c38-11.7,55.4-62.1,59.6-120.3C404,73.1,320,73.1,320,73.1Z" transform="translate(-179.5 -37.2)"/><path class="cls-3" d="M276.1,193.4s5.2-7.1,13.3,0" transform="translate(-179.5 -37.2)"/><path class="cls-3" d="M350.6,193.4s5.2-7.1,13.3,0" transform="translate(-179.5 -37.2)"/><path class="cls-4" d="M308,237.3s12.6,3.2,25.6,0C333.6,237.3,322.3,249.4,308,237.3Z" transform="translate(-179.5 -37.2)"/><path class="cls-5" d="M356.8,124.5c-4.2-2.3-8.7-5-13.6-2.5-6.5,3.3-2.8,10.7-6.9,16.4-5.2,7.3-10.8,2-15.4,5.1-6.5,4.4-2.5,12.8-13.4,14-3.1.4-7.3-2.4-10.7-.7s-3.1,6.7-5.8,9c-5.7,4.9-11.1,2.4-17.6.8-16.5-4.1-21,6.1-20.7,21.4C248.3,169.9,237.5,171,227,159s-2.6-22.4-2-33.8c-6.1,2.6-14.8,1.9-13-7.5,12.4.7,15.8-7.5,12.1-17.5S217.3,85,227.9,78c9-5.9,8.1-15.4,17-21,5.2-3.3,10.4-1.9,15.2-4.1s5.8-7.8,8.9-11.6c4.3,12.9,34.4-5.4,45.2-4,8.5,1.1,11,8.9,18,11.7s18.5-3.2,26.8-1.9,14.7,6.3,19,12.5,3.8,14.9,9,20.8c12.1,14,26.9,21.7,27.4,42.2-2.6-.2-5.5.4-8.1.3.9.1,1,28,.3,30.8-1.2,4.8-3.8,9.3-6.4,13.4s-4,8.9-6.6,13.1c-.6-4.5-3.2-9-4.5-13.5-2-6.8-2.9-13.9-4.7-20.6s-5.7-13.9-12.2-16.8c-4.2-1.9-8.9-1.6-13-3.4Z" transform="translate(-179.5 -37.2)"/><path class="cls-5" d="M320.4,222.9s-7.3-1.6-12.4,1.4-24.9,10-17.8,19.5a15.6,15.6,0,0,1,11.9-8.7c8.7-1.1,15.3-.8,16.9-6.5Z" transform="translate(-179.5 -37.2)"/><path class="cls-5" d="M319.6,222.9s7.3-1.6,12.4,1.4,24.9,10,17.8,19.5a15.6,15.6,0,0,0-11.9-8.7c-8.7-1.1-15.3-.8-16.9-6.5Z" transform="translate(-179.5 -37.2)"/><path class="cls-6" d="M243.2,311,219,315.6c1.9,11,1.8,29.1,1.1,45.2h48.9C244.6,341.4,243.2,311,243.2,311Z" transform="translate(-179.5 -37.2)"/><path class="cls-6" d="M398.2,311l24.2,4.6c-1.9,11-1.8,29.1-1.1,45.2H372.5C396.9,341.4,398.2,311,398.2,311Z" transform="translate(-179.5 -37.2)"/><path class="cls-5" d="M357.4,175.9c-22.9,0-34.4,5.7-34.4,5.7h-6s-11.5-5.7-34.4-5.7-25.3,2.4-25.3,2.4v7.2c3,0,3.6,10,3.6,10,1.8,13.3,14.2,14.8,14.2,14.8h20.2c11.2,0,15.1-9.7,18.4-16.3s6.3-5.7,6.3-5.7,3-.9,6.3,5.7,7.2,16.3,18.4,16.3h20.2s12.4-1.5,14.2-14.8c0,0,.6-10,3.6-10v-7.2S380.3,175.9,357.4,175.9ZM310,193.8c-4.9,10.8-4,14.3-26.4,14.3s-20.4-14.9-20.4-22.6,18.3-7.7,18.3-7.7C309.1,177.7,314.9,182.9,310,193.8Zm46.4,14.3c-22.4,0-21.5-3.4-26.4-14.3s.9-16,28.5-16c0,0,18.3,0,18.3,7.7S378.8,208.1,356.4,208.1Z" transform="translate(-179.5 -37.2)"/></svg>