<svg id="Layer_1" data-name="Layer 1" xmlns="http://www.w3.org/2000/svg" viewBox="0 0 280.9 323.6"><defs><style>.cls-1{fill:#f2e0d1;}.cls-2{fill:#e5d0c1;}.cls-3{fill:none;stroke:#231f20;stroke-linecap:round;stroke-linejoin:round;stroke-width:2px;}.cls-4{fill:#ff6363;}.cls-5{fill:#231f20;}.cls-6{fill:#dfd276;}</style></defs><title>proto</title><path class="cls-1" d="M417,322.6c-43.9-7.9-80.9-14.6-80.2-44-12,3.1-34.5,1.3-41.6-.2C296,308,259,314.7,215,322.6c-49.4,8.9-38.4,45.2-38.4,45.2H455.4S466.3,331.5,417,322.6Z" transform="translate(-175.5 -44.2)"/><path class="cls-2" d="M241.7,185s-17.7-.9-13.6,15S243,226.4,251,221.8Z" transform="translate(-175.5 -44.2)"/><path class="cls-2" d="M391,185s17.7-.9,13.6,15-14.9,26.4-22.9,21.8Z" transform="translate(-175.5 -44.2)"/><path class="cls-2" d="M336.8,278.6c0-1.8.2-6.7.4-8.7-5.5,1.2-15.9,1.8-21.2,1.8s-15.8-.6-21.2-1.8c.2,1.9.4,6.8.4,8.5C302.3,280,324.8,281.7,336.8,278.6Z" transform="translate(-175.5 -44.2)"/><path class="cls-1" d="M316,80.1s-84,.1-78.8,71.6c4.1,57.5,20.5,103.4,58.5,119.9a31.3,31.3,0,0,0,5.4,1.5,64.3,64.3,0,0,0,29.8,0l4.3-1.2c38-11.7,55.4-62.1,59.6-120.3C400,80.1,316,80.1,316,80.1Z" transform="translate(-175.5 -44.2)"/><path class="cls-3" d="M272.1,200.4s5.2-7.1,13.3,0" transform="translate(-175.5 -44.2)"/><path class="cls-3" d="M346.6,200.4s5.2-7.1,13.3,0" transform="translate(-175.5 -44.2)"/><path class="cls-4" d="M304,244.3s12.6,3.2,25.6,0C329.6,244.3,318.3,256.4,304,244.3Z" transform="translate(-175.5 -44.2)"/><path class="cls-5" d="M352.8,131.5c-4.2-2.3-8.7-5-13.6-2.5-6.5,3.3-2.8,10.7-6.9,16.4-5.2,7.3-10.8,2-15.4,5.1-6.5,4.4-2.5,12.8-13.4,14-3.1.4-7.3-2.4-10.7-.7s-3.1,6.7-5.8,9c-5.7,4.9-11.1,2.4-17.6.8-16.5-4.1-21,6.1-20.7,21.4C244.3,176.9,233.5,178,223,166s-2.6-22.4-2-33.8c-6.1,2.6-14.8,1.9-13-7.5,12.4.7,15.8-7.5,12.1-17.5S213.3,92,223.9,85c9-5.9,8.1-15.4,17-21,5.2-3.3,10.4-1.9,15.2-4.1s5.8-7.8,8.9-11.6c4.3,12.9,34.4-5.4,45.2-4,8.5,1.1,11,8.9,18,11.7s18.5-3.2,26.8-1.9,14.7,6.3,19,12.5,3.8,14.9,9,20.8c12.1,14,26.9,21.7,27.4,42.2-2.6-.2-5.5.4-8.1.3.9.1,1,28,.3,30.8-1.2,4.8-3.8,9.3-6.4,13.4s-4,8.9-6.6,13.1c-.6-4.5-3.2-9-4.5-13.5-2-6.8-2.9-13.9-4.7-20.6s-5.7-13.9-12.2-16.8c-4.2-1.9-8.9-1.6-13-3.4Z" transform="translate(-175.5 -44.2)"/><path class="cls-6" d="M239.2,318,215,322.6c1.9,11,1.8,29.1,1.1,45.2h48.9C240.6,348.4,239.2,318,239.2,318Z" transform="translate(-175.5 -44.2)"/><path class="cls-6" d="M394.2,318l24.2,4.6c-1.9,11-1.8,29.1-1.1,45.2H368.5C392.9,348.4,394.2,318,394.2,318Z" transform="translate(-175.5 -44.2)"/></svg>