<svg id="Layer_1" data-name="Layer 1" xmlns="http://www.w3.org/2000/svg" viewBox="0 0 280.9 323.6"><defs><style>.cls-1{fill:#f2e0d1;}.cls-2{fill:#e5d0c1;}.cls-3{fill:none;stroke:#231f20;stroke-linecap:round;stroke-linejoin:round;stroke-width:2px;}.cls-4{fill:#ff6363;}.cls-5{fill:#231f20;}.cls-6{fill:#97c0d6;}.cls-7{fill:#fff;}</style></defs><title>proto_4</title><path class="cls-1" d="M414,316.6c-43.9-7.9-80.9-14.6-80.2-44-12,3.1-34.5,1.3-41.6-.2C293,302,256,308.7,212,316.6c-49.4,8.9-38.4,45.2-38.4,45.2H452.4S463.3,325.5,414,316.6Z" transform="translate(-172.5 -38.2)"/><path class="cls-2" d="M238.7,179s-17.7-.9-13.6,15S240,220.4,248,215.8Z" transform="translate(-172.5 -38.2)"/><path class="cls-2" d="M388,179s17.7-.9,13.6,15-14.9,26.4-22.9,21.8Z" transform="translate(-172.5 -38.2)"/><path class="cls-2" d="M333.8,272.6c0-1.8.2-6.7.4-8.7-5.5,1.2-15.9,1.8-21.2,1.8s-15.8-.6-21.2-1.8c.2,1.9.4,6.8.4,8.5C299.3,274,321.8,275.7,333.8,272.6Z" transform="translate(-172.5 -38.2)"/><path class="cls-1" d="M313,74.1s-84,.1-78.8,71.6c4.1,57.5,20.5,103.4,58.5,119.9a31.3,31.3,0,0,0,5.4,1.5,64.3,64.3,0,0,0,29.8,0l4.3-1.2c38-11.7,55.4-62.1,59.6-120.3C397,74.1,313,74.1,313,74.1Z" transform="translate(-172.5 -38.2)"/><path class="cls-3" d="M269.1,194.4s5.2-7.1,13.3,0" transform="translate(-172.5 -38.2)"/><path class="cls-3" d="M343.6,194.4s5.2-7.1,13.3,0" transform="translate(-172.5 -38.2)"/><path class="cls-4" d="M301,238.3s12.6,3.2,25.6,0C326.6,238.3,315.3,250.4,301,238.3Z" transform="translate(-172.5 -38.2)"/><path class="cls-5" d="M349.8,125.5c-4.2-2.3-8.7-5-13.6-2.5-6.5,3.3-2.8,10.7-6.9,16.4-5.2,7.3-10.8,2-15.4,5.1-6.5,4.4-2.5,12.8-13.4,14-3.1.4-7.3-2.4-10.7-.7s-3.1,6.7-5.8,9c-5.7,4.9-11.1,2.4-17.6.8-16.5-4.1-21,6.1-20.7,21.4C241.3,170.9,230.5,172,220,160s-2.6-22.4-2-33.8c-6.1,2.6-14.8,1.9-13-7.5,12.4.7,15.8-7.5,12.1-17.5S210.3,86,220.9,79c9-5.9,8.1-15.4,17-21,5.2-3.3,10.4-1.9,15.2-4.1s5.8-7.8,8.9-11.6c4.3,12.9,34.4-5.4,45.2-4,8.5,1.1,11,8.9,18,11.7s18.5-3.2,26.8-1.9,14.7,6.3,19,12.5,3.8,14.9,9,20.8c12.1,14,26.9,21.7,27.4,42.2-2.6-.2-5.5.4-8.1.3.9.1,1,28,.3,30.8-1.2,4.8-3.8,9.3-6.4,13.4s-4,8.9-6.6,13.1c-.6-4.5-3.2-9-4.5-13.5-2-6.8-2.9-13.9-4.7-20.6s-5.7-13.9-12.2-16.8c-4.2-1.9-8.9-1.6-13-3.4Z" transform="translate(-172.5 -38.2)"/><path class="cls-5" d="M313.4,223.9s-7.3-1.6-12.4,1.4-24.9,10-17.8,19.5a15.6,15.6,0,0,1,11.9-8.7c8.7-1.1,15.3-.8,16.9-6.5Z" transform="translate(-172.5 -38.2)"/><path class="cls-5" d="M312.6,223.9s7.3-1.6,12.4,1.4,24.9,10,17.8,19.5a15.6,15.6,0,0,0-11.9-8.7c-8.7-1.1-15.3-.8-16.9-6.5Z" transform="translate(-172.5 -38.2)"/><path class="cls-5" d="M308.2,254.3a20.6,20.6,0,0,0,11,0s-1.3,14.7,9.2,12.6c0,0-5.9,10.2-14.7,10.2s-15.1-9.9-15.1-9.9S311.3,268.2,308.2,254.3Z" transform="translate(-172.5 -38.2)"/><path class="cls-5" d="M350.4,176.9c-22.9,0-34.4,5.7-34.4,5.7h-6s-11.5-5.7-34.4-5.7-25.3,2.4-25.3,2.4v7.2c3,0,3.6,10,3.6,10,1.8,13.3,14.2,14.8,14.2,14.8h20.2c11.2,0,15.1-9.7,18.4-16.3s6.3-5.7,6.3-5.7,3-.9,6.3,5.7,7.2,16.3,18.4,16.3h20.2s12.4-1.5,14.2-14.8c0,0,.6-10,3.6-10v-7.2S373.3,176.9,350.4,176.9ZM303,194.8c-4.9,10.8-4,14.3-26.4,14.3s-20.4-14.9-20.4-22.6,18.3-7.7,18.3-7.7C302.1,178.7,307.9,183.9,303,194.8Zm46.4,14.3c-22.4,0-21.5-3.4-26.4-14.3s.9-16,28.5-16c0,0,18.3,0,18.3,7.7S371.8,209.1,349.4,209.1Z" transform="translate(-172.5 -38.2)"/><path class="cls-1" d="M412.5,316.3c-43.6-7.8-80.4-14.5-79.7-43.7-11.9,3-34.3,1.3-41.3-.2.8,29.3-36,36-79.7,43.8-49,8.8-38.2,45-38.2,45H450.7S461.5,325.1,412.5,316.3Z" transform="translate(-172.5 -38.2)"/><path class="cls-6" d="M413.4,316.3c-14.4-2.6-28-5-39.9-8.2s-21.8-7.1-28.8-12.6l-26.9,22.6-6.1,4.6-.8,28.8-3.7-33.4-26.8-22.6c-7,5.5-17,9.4-28.9,12.6s-25.4,5.6-39.8,8.2c-49,8.8-38.2,45-38.2,45h278S462.5,325.1,413.4,316.3Z" transform="translate(-172.5 -38.2)"/><path class="cls-7" d="M286.7,289.1s-20-3.7-24.7,16c0,0,19.7,27.8,29.6,34.1,0,0,2-21.4,15.6-21.1C307.2,318.1,277.9,295.5,286.7,289.1Z" transform="translate(-172.5 -38.2)"/><path class="cls-7" d="M338.4,289.1s20-3.7,24.7,16c0,0-19.7,27.8-29.6,34.1,0,0-2-21.4-15.6-21.1C317.8,318.1,347.1,295.5,338.4,289.1Z" transform="translate(-172.5 -38.2)"/></svg>